<svg id="Layer" enable-background="new 0 0 512 512" height="512" viewBox="0 0 512 512" width="512" xmlns="http://www.w3.org/2000/svg"><path d="m388 48h-264c-68.374 0-124 55.626-124 124v180c0 61.757 50.243 112 112 112s112-50.243 112-112v-16h64v16c0 61.757 50.243 112 112 112s112-50.243 112-112v-180c0-68.374-55.626-124-124-124zm76 304c0 35.29-28.71 64-64 64s-64-28.71-64-64v-22c0-23.159-18.841-42-42-42h-76c-23.159 0-42 18.841-42 42v22c0 35.29-28.71 64-64 64s-64-28.71-64-64v-180c0-41.907 34.094-76 76-76h264c41.906 0 76 34.093 76 76z"/><path d="m192 168h-24v-24c0-13.255-10.745-24-24-24s-24 10.745-24 24v24h-24c-13.255 0-24 10.745-24 24s10.745 24 24 24h24v24c0 13.255 10.745 24 24 24s24-10.745 24-24v-24h24c13.255 0 24-10.745 24-24s-10.745-24-24-24z"/><circle cx="368.015" cy="144.005" r="24.005"/><circle cx="320.005" cy="192.005" r="24.005"/><path d="m368.015 216.01c-13.255 0-24.005 10.75-24.005 24.005s10.75 24.005 24.005 24.005 24.005-10.75 24.005-24.005-10.75-24.005-24.005-24.005z"/><path d="m416.005 168.01c-13.255 0-24.005 10.75-24.005 24.005s10.75 24.005 24.005 24.005 24.005-10.75 24.005-24.005-10.75-24.005-24.005-24.005z"/></svg>